<svg id="Capa_1" enable-background="new 0 0 512.017 512.017" height="512" viewBox="0 0 512.017 512.017" width="512" xmlns="http://www.w3.org/2000/svg" xmlns:xlink="http://www.w3.org/1999/xlink"><linearGradient id="SVGID_1_" gradientUnits="userSpaceOnUse" x1="256.008" x2="256.008" y1="406.008" y2="109.308"><stop offset="0" stop-color="#a93aff"/><stop offset="1" stop-color="#ff81ff"/></linearGradient><linearGradient id="SVGID_2_" gradientUnits="userSpaceOnUse" x1="254.339" x2="254.339" y1="466.008" y2="46.008"><stop offset="0" stop-color="#ffbef9"/><stop offset="1" stop-color="#fff1ff"/></linearGradient><g><g><g><path d="m508.661 111.708-256.944 69.3-186-71.7c-2.701 2.1-4.501 5.099-5.4 8.4l-60 270c-1.8 8.7 4.2 18.3 14.7 18.3h421.943c5.099 0 12.599-3.3 14.7-11.7l60-270c.601-2.701.901-7.801-2.999-12.6z" fill="url(#SVGID_1_)"/></g></g><g><g><path d="m211.686 436.008h-196.67c-8.291 0-15 6.709-15 15s6.709 15 15 15h196.67c8.291 0 15-6.709 15-15s-6.709-15-15-15zm-196.67-150h120c8.291 0 15-6.709 15-15s-6.709-15-15-15h-120c-8.291 0-15 6.709-15 15s6.709 15 15 15zm0-210h283.33c8.291 0 15-6.709 15-15s-6.709-15-15-15h-283.33c-8.291 0-15 6.709-15 15s6.709 15 15 15zm481.944 30h-421.944c-3.6 0-6.899 1.199-9.3 3.3l177.654 154.444c4.962 4.314 12.156 4.894 17.745 1.429l247.544-153.473c-3.898-4.801-8.998-5.7-11.699-5.7z" fill="url(#SVGID_2_)"/></g></g></g></svg>